<mxfile host="app.diagrams.net" agent="Mozilla/5.0 (Windows NT 10.0; Win64; x64) AppleWebKit/537.36 (KHTML, like Gecko) Chrome/134.0.0.0 Safari/537.36" version="26.1.0">
  <diagram name="Page-1" id="HpiqihjONgjI034JooQM">
    <mxGraphModel grid="1" page="1" gridSize="10" guides="1" tooltips="1" connect="1" arrows="1" fold="1" pageScale="1" pageWidth="850" pageHeight="1100" math="0" shadow="0">
      <root>
        <mxCell id="0" />
        <mxCell id="1" parent="0" />
        <mxCell id="wz_46zm2w6vfbIwNSWO_-28" value="" style="rounded=1;whiteSpace=wrap;html=1;strokeWidth=5;" vertex="1" parent="1">
          <mxGeometry x="-4440" y="-5830" width="12670" height="7850" as="geometry" />
        </mxCell>
        <mxCell id="eY9uLmGLlyun7crg_Z2C-3" value="" style="rounded=1;whiteSpace=wrap;html=1;strokeWidth=6;" vertex="1" parent="1">
          <mxGeometry x="2240" y="-570" width="1140" height="1230" as="geometry" />
        </mxCell>
        <mxCell id="wz_46zm2w6vfbIwNSWO_-41" style="edgeStyle=orthogonalEdgeStyle;rounded=0;orthogonalLoop=1;jettySize=auto;html=1;strokeWidth=8;" edge="1" parent="1" source="eY9uLmGLlyun7crg_Z2C-4">
          <mxGeometry relative="1" as="geometry">
            <mxPoint x="2880" y="-2930" as="targetPoint" />
          </mxGeometry>
        </mxCell>
        <mxCell id="eY9uLmGLlyun7crg_Z2C-4" value="" style="rounded=1;whiteSpace=wrap;html=1;strokeWidth=5;" vertex="1" parent="1">
          <mxGeometry x="950" y="-2200" width="3870" height="3320" as="geometry" />
        </mxCell>
        <mxCell id="eY9uLmGLlyun7crg_Z2C-5" value="in" style="rounded=1;whiteSpace=wrap;html=1;strokeWidth=7;direction=south;" vertex="1" parent="1">
          <mxGeometry x="-2160" y="-2200" width="2815" height="3325" as="geometry" />
        </mxCell>
        <mxCell id="eY9uLmGLlyun7crg_Z2C-8" value="&lt;font style=&quot;font-size: 48px;&quot;&gt;&lt;b&gt;Public Subnet (Web Tier)&lt;/b&gt;&lt;/font&gt;" style="text;html=1;align=left;verticalAlign=middle;whiteSpace=wrap;rounded=0;" vertex="1" parent="1">
          <mxGeometry x="-1265" y="-2120" width="650" height="30" as="geometry" />
        </mxCell>
        <mxCell id="eY9uLmGLlyun7crg_Z2C-16" value="" style="outlineConnect=0;dashed=0;verticalLabelPosition=bottom;verticalAlign=top;align=center;html=1;shape=mxgraph.aws3.application_load_balancer;fillColor=#F58534;gradientColor=none;" vertex="1" parent="1">
          <mxGeometry x="-2510" y="-735" width="530" height="570" as="geometry" />
        </mxCell>
        <mxCell id="eY9uLmGLlyun7crg_Z2C-34" style="edgeStyle=orthogonalEdgeStyle;rounded=0;orthogonalLoop=1;jettySize=auto;html=1;strokeWidth=5;" edge="1" parent="1" source="eY9uLmGLlyun7crg_Z2C-18" target="eY9uLmGLlyun7crg_Z2C-32">
          <mxGeometry relative="1" as="geometry">
            <Array as="points">
              <mxPoint x="-1010" y="-510" />
            </Array>
          </mxGeometry>
        </mxCell>
        <mxCell id="eY9uLmGLlyun7crg_Z2C-22" value="" style="sketch=0;points=[[0,0,0],[0.25,0,0],[0.5,0,0],[0.75,0,0],[1,0,0],[0,1,0],[0.25,1,0],[0.5,1,0],[0.75,1,0],[1,1,0],[0,0.25,0],[0,0.5,0],[0,0.75,0],[1,0.25,0],[1,0.5,0],[1,0.75,0]];outlineConnect=0;fontColor=#232F3E;fillColor=#ED7100;strokeColor=#ffffff;dashed=0;verticalLabelPosition=bottom;verticalAlign=top;align=center;html=1;fontSize=12;fontStyle=0;aspect=fixed;shape=mxgraph.aws4.resourceIcon;resIcon=mxgraph.aws4.ec2;" vertex="1" parent="1">
          <mxGeometry x="2590" y="-1800" width="660" height="660" as="geometry" />
        </mxCell>
        <mxCell id="eY9uLmGLlyun7crg_Z2C-23" value="" style="sketch=0;points=[[0,0,0],[0.25,0,0],[0.5,0,0],[0.75,0,0],[1,0,0],[0,1,0],[0.25,1,0],[0.5,1,0],[0.75,1,0],[1,1,0],[0,0.25,0],[0,0.5,0],[0,0.75,0],[1,0.25,0],[1,0.5,0],[1,0.75,0]];outlineConnect=0;fontColor=#232F3E;fillColor=#ED7100;strokeColor=#ffffff;dashed=0;verticalLabelPosition=bottom;verticalAlign=top;align=center;html=1;fontSize=12;fontStyle=0;aspect=fixed;shape=mxgraph.aws4.resourceIcon;resIcon=mxgraph.aws4.ec2;" vertex="1" parent="1">
          <mxGeometry x="2590" y="-10" width="690" height="690" as="geometry" />
        </mxCell>
        <mxCell id="eY9uLmGLlyun7crg_Z2C-26" value="&lt;font style=&quot;font-size: 48px;&quot;&gt;&lt;b&gt;Private Subnet (App Tier)&lt;/b&gt;&lt;/font&gt;" style="text;html=1;align=left;verticalAlign=middle;whiteSpace=wrap;rounded=0;" vertex="1" parent="1">
          <mxGeometry x="2580" y="-2070" width="650" height="30" as="geometry" />
        </mxCell>
        <mxCell id="eY9uLmGLlyun7crg_Z2C-27" value="&lt;font style=&quot;font-size: 48px;&quot;&gt;&lt;b&gt;Private Subnet (Data Tier)&lt;/b&gt;&lt;/font&gt;" style="text;html=1;align=left;verticalAlign=middle;whiteSpace=wrap;rounded=0;" vertex="1" parent="1">
          <mxGeometry x="6460" y="-2290" width="650" height="30" as="geometry" />
        </mxCell>
        <mxCell id="eY9uLmGLlyun7crg_Z2C-38" style="edgeStyle=orthogonalEdgeStyle;rounded=0;orthogonalLoop=1;jettySize=auto;html=1;strokeWidth=5;" edge="1" parent="1" source="eY9uLmGLlyun7crg_Z2C-32" target="eY9uLmGLlyun7crg_Z2C-23">
          <mxGeometry relative="1" as="geometry">
            <Array as="points">
              <mxPoint x="2935" y="-500" />
            </Array>
          </mxGeometry>
        </mxCell>
        <mxCell id="wz_46zm2w6vfbIwNSWO_-42" style="edgeStyle=orthogonalEdgeStyle;rounded=0;orthogonalLoop=1;jettySize=auto;html=1;strokeWidth=7;" edge="1" parent="1" source="eY9uLmGLlyun7crg_Z2C-32" target="eY9uLmGLlyun7crg_Z2C-64">
          <mxGeometry relative="1" as="geometry" />
        </mxCell>
        <mxCell id="eY9uLmGLlyun7crg_Z2C-32" value="" style="outlineConnect=0;dashed=0;verticalLabelPosition=bottom;verticalAlign=top;align=center;html=1;shape=mxgraph.aws3.application_load_balancer;fillColor=#F58534;gradientColor=none;" vertex="1" parent="1">
          <mxGeometry x="1120" y="-750" width="400" height="500" as="geometry" />
        </mxCell>
        <mxCell id="eY9uLmGLlyun7crg_Z2C-35" style="edgeStyle=orthogonalEdgeStyle;rounded=0;orthogonalLoop=1;jettySize=auto;html=1;entryX=-0.006;entryY=0.447;entryDx=0;entryDy=0;entryPerimeter=0;strokeWidth=5;" edge="1" parent="1" source="eY9uLmGLlyun7crg_Z2C-16" target="eY9uLmGLlyun7crg_Z2C-61">
          <mxGeometry relative="1" as="geometry">
            <Array as="points">
              <mxPoint x="-1700" y="-390" />
              <mxPoint x="-1700" y="-1539" />
            </Array>
          </mxGeometry>
        </mxCell>
        <mxCell id="eY9uLmGLlyun7crg_Z2C-42" value="&lt;span style=&quot;font-size: 48px;&quot;&gt;&lt;b&gt;Workloads running Flask Backend&lt;/b&gt;&lt;/span&gt;" style="text;html=1;align=center;verticalAlign=middle;whiteSpace=wrap;rounded=0;" vertex="1" parent="1">
          <mxGeometry x="2590" y="880" width="660" height="30" as="geometry" />
        </mxCell>
        <mxCell id="eY9uLmGLlyun7crg_Z2C-46" value="" style="sketch=0;outlineConnect=0;fontColor=#232F3E;gradientColor=none;fillColor=#8C4FFF;strokeColor=none;dashed=0;verticalLabelPosition=bottom;verticalAlign=top;align=center;html=1;fontSize=12;fontStyle=0;aspect=fixed;pointerEvents=1;shape=mxgraph.aws4.internet_gateway;" vertex="1" parent="1">
          <mxGeometry x="-4840" y="-3080" width="760" height="760" as="geometry" />
        </mxCell>
        <mxCell id="eY9uLmGLlyun7crg_Z2C-52" value="" style="sketch=0;points=[[0,0,0],[0.25,0,0],[0.5,0,0],[0.75,0,0],[1,0,0],[0,1,0],[0.25,1,0],[0.5,1,0],[0.75,1,0],[1,1,0],[0,0.25,0],[0,0.5,0],[0,0.75,0],[1,0.25,0],[1,0.5,0],[1,0.75,0]];outlineConnect=0;fontColor=#232F3E;fillColor=#ED7100;strokeColor=#ffffff;dashed=0;verticalLabelPosition=bottom;verticalAlign=top;align=center;html=1;fontSize=12;fontStyle=0;aspect=fixed;shape=mxgraph.aws4.resourceIcon;resIcon=mxgraph.aws4.auto_scaling2;" vertex="1" parent="1">
          <mxGeometry x="1170" y="-1970" width="230" height="230" as="geometry" />
        </mxCell>
        <mxCell id="eY9uLmGLlyun7crg_Z2C-55" style="edgeStyle=orthogonalEdgeStyle;rounded=0;orthogonalLoop=1;jettySize=auto;html=1;strokeWidth=6;" edge="1" parent="1" source="eY9uLmGLlyun7crg_Z2C-54" target="eY9uLmGLlyun7crg_Z2C-16">
          <mxGeometry relative="1" as="geometry" />
        </mxCell>
        <mxCell id="eY9uLmGLlyun7crg_Z2C-54" value="" style="sketch=0;points=[[0,0,0],[0.25,0,0],[0.5,0,0],[0.75,0,0],[1,0,0],[0,1,0],[0.25,1,0],[0.5,1,0],[0.75,1,0],[1,1,0],[0,0.25,0],[0,0.5,0],[0,0.75,0],[1,0.25,0],[1,0.5,0],[1,0.75,0]];outlineConnect=0;fontColor=#232F3E;fillColor=#DD344C;strokeColor=#ffffff;dashed=0;verticalLabelPosition=bottom;verticalAlign=top;align=center;html=1;fontSize=12;fontStyle=0;aspect=fixed;shape=mxgraph.aws4.resourceIcon;resIcon=mxgraph.aws4.waf;" vertex="1" parent="1">
          <mxGeometry x="-4790" y="-770" width="630" height="630" as="geometry" />
        </mxCell>
        <mxCell id="eY9uLmGLlyun7crg_Z2C-56" value="" style="sketch=0;outlineConnect=0;fontColor=#232F3E;gradientColor=none;fillColor=#8C4FFF;strokeColor=none;dashed=0;verticalLabelPosition=bottom;verticalAlign=top;align=center;html=1;fontSize=12;fontStyle=0;aspect=fixed;pointerEvents=1;shape=mxgraph.aws4.network_access_control_list;" vertex="1" parent="1">
          <mxGeometry x="247" y="828" width="178" height="178" as="geometry" />
        </mxCell>
        <mxCell id="eY9uLmGLlyun7crg_Z2C-57" value="" style="sketch=0;outlineConnect=0;fontColor=#232F3E;gradientColor=none;fillColor=#8C4FFF;strokeColor=none;dashed=0;verticalLabelPosition=bottom;verticalAlign=top;align=center;html=1;fontSize=12;fontStyle=0;aspect=fixed;pointerEvents=1;shape=mxgraph.aws4.network_access_control_list;" vertex="1" parent="1">
          <mxGeometry x="4410" y="828" width="178" height="178" as="geometry" />
        </mxCell>
        <mxCell id="eY9uLmGLlyun7crg_Z2C-63" value="" style="rounded=1;arcSize=10;dashed=1;strokeColor=#ff0000;fillColor=none;gradientColor=none;dashPattern=8 4;strokeWidth=7;" vertex="1" parent="1">
          <mxGeometry x="2420" y="-200" width="1085" height="990" as="geometry" />
        </mxCell>
        <mxCell id="eY9uLmGLlyun7crg_Z2C-64" value="" style="rounded=1;arcSize=10;dashed=1;strokeColor=#ff0000;fillColor=none;gradientColor=none;dashPattern=8 4;strokeWidth=7;" vertex="1" parent="1">
          <mxGeometry x="2340" y="-1970" width="1140" height="970" as="geometry" />
        </mxCell>
        <mxCell id="eY9uLmGLlyun7crg_Z2C-67" value="&lt;div&gt;&lt;br&gt;&lt;/div&gt;" style="text;html=1;align=left;verticalAlign=middle;whiteSpace=wrap;rounded=0;" vertex="1" parent="1">
          <mxGeometry x="2240" y="-1590" width="650" height="30" as="geometry" />
        </mxCell>
        <mxCell id="Eywryjaf7EMwXjLm-M8s-107" value="&lt;h1 style=&quot;margin-top: 0px;&quot;&gt;&lt;br&gt;&lt;/h1&gt;" style="text;html=1;whiteSpace=wrap;overflow=hidden;rounded=0;strokeWidth=6;" vertex="1" parent="1">
          <mxGeometry x="170" y="-1620" width="500" height="250" as="geometry" />
        </mxCell>
        <mxCell id="Eywryjaf7EMwXjLm-M8s-108" value="" style="sketch=0;outlineConnect=0;fontColor=#232F3E;gradientColor=none;fillColor=#7AA116;strokeColor=none;dashed=0;verticalLabelPosition=bottom;verticalAlign=top;align=center;html=1;fontSize=12;fontStyle=0;aspect=fixed;pointerEvents=1;shape=mxgraph.aws4.bucket_with_objects;" vertex="1" parent="1">
          <mxGeometry x="-3460" y="1215.63" width="499.97" height="519.97" as="geometry" />
        </mxCell>
        <mxCell id="Eywryjaf7EMwXjLm-M8s-112" style="edgeStyle=orthogonalEdgeStyle;rounded=0;orthogonalLoop=1;jettySize=auto;html=1;strokeWidth=6;" edge="1" parent="1" source="Eywryjaf7EMwXjLm-M8s-109" target="Eywryjaf7EMwXjLm-M8s-108">
          <mxGeometry relative="1" as="geometry" />
        </mxCell>
        <mxCell id="Eywryjaf7EMwXjLm-M8s-109" value="" style="outlineConnect=0;dashed=0;verticalLabelPosition=bottom;verticalAlign=top;align=center;html=1;shape=mxgraph.aws3.cloudfront;fillColor=#F58536;gradientColor=none;" vertex="1" parent="1">
          <mxGeometry x="-940" y="1240" width="470" height="470" as="geometry" />
        </mxCell>
        <mxCell id="Eywryjaf7EMwXjLm-M8s-111" style="edgeStyle=orthogonalEdgeStyle;rounded=0;orthogonalLoop=1;jettySize=auto;html=1;" edge="1" parent="1" source="Eywryjaf7EMwXjLm-M8s-108" target="Eywryjaf7EMwXjLm-M8s-108">
          <mxGeometry relative="1" as="geometry" />
        </mxCell>
        <mxCell id="wz_46zm2w6vfbIwNSWO_-1" value="" style="sketch=0;outlineConnect=0;fontColor=#232F3E;gradientColor=none;fillColor=#8C4FFF;strokeColor=none;dashed=0;verticalLabelPosition=bottom;verticalAlign=top;align=center;html=1;fontSize=12;fontStyle=0;aspect=fixed;pointerEvents=1;shape=mxgraph.aws4.endpoints;" vertex="1" parent="1">
          <mxGeometry x="2660" y="960" width="410" height="410" as="geometry" />
        </mxCell>
        <mxCell id="wz_46zm2w6vfbIwNSWO_-5" style="edgeStyle=orthogonalEdgeStyle;rounded=0;orthogonalLoop=1;jettySize=auto;html=1;entryX=1;entryY=0.5;entryDx=0;entryDy=0;entryPerimeter=0;strokeWidth=9;" edge="1" parent="1" source="wz_46zm2w6vfbIwNSWO_-1" target="Eywryjaf7EMwXjLm-M8s-109">
          <mxGeometry relative="1" as="geometry">
            <Array as="points">
              <mxPoint x="2920" y="1520" />
              <mxPoint x="-470" y="1520" />
            </Array>
          </mxGeometry>
        </mxCell>
        <mxCell id="eY9uLmGLlyun7crg_Z2C-65" value="" style="rounded=1;arcSize=10;dashed=1;strokeColor=#ff0000;fillColor=none;gradientColor=none;dashPattern=8 4;strokeWidth=5;" vertex="1" parent="1">
          <mxGeometry x="-1390" y="-280" width="1050" height="1140" as="geometry" />
        </mxCell>
        <mxCell id="wz_46zm2w6vfbIwNSWO_-15" style="edgeStyle=orthogonalEdgeStyle;rounded=0;orthogonalLoop=1;jettySize=auto;html=1;strokeWidth=8;" edge="1" parent="1" source="eY9uLmGLlyun7crg_Z2C-16">
          <mxGeometry relative="1" as="geometry">
            <mxPoint x="-1396" y="550" as="targetPoint" />
            <Array as="points">
              <mxPoint x="-1700" y="-390" />
              <mxPoint x="-1700" y="621" />
            </Array>
          </mxGeometry>
        </mxCell>
        <mxCell id="wz_46zm2w6vfbIwNSWO_-17" style="edgeStyle=orthogonalEdgeStyle;rounded=0;orthogonalLoop=1;jettySize=auto;html=1;exitX=0.5;exitY=1;exitDx=0;exitDy=0;entryX=0.5;entryY=0;entryDx=0;entryDy=0;" edge="1" parent="1">
          <mxGeometry relative="1" as="geometry">
            <mxPoint x="6878" y="910" as="sourcePoint" />
            <mxPoint x="6878" y="880" as="targetPoint" />
          </mxGeometry>
        </mxCell>
        <mxCell id="eY9uLmGLlyun7crg_Z2C-61" value="" style="rounded=1;arcSize=10;dashed=1;strokeColor=#ff0000;fillColor=none;gradientColor=none;dashPattern=8 4;strokeWidth=5;" vertex="1" parent="1">
          <mxGeometry x="-1396.3899999999999" y="-2160" width="1090" height="1200" as="geometry" />
        </mxCell>
        <mxCell id="wz_46zm2w6vfbIwNSWO_-29" value="" style="rounded=1;whiteSpace=wrap;html=1;strokeWidth=9;" vertex="1" parent="1">
          <mxGeometry x="5300" y="-2110" width="2820" height="3230" as="geometry" />
        </mxCell>
        <mxCell id="wz_46zm2w6vfbIwNSWO_-12" value="" style="rounded=1;arcSize=10;dashed=1;strokeColor=#ff0000;fillColor=none;gradientColor=none;dashPattern=8 4;strokeWidth=7;" vertex="1" parent="1">
          <mxGeometry x="6100" y="-70" width="1380" height="880" as="geometry" />
        </mxCell>
        <mxCell id="eY9uLmGLlyun7crg_Z2C-13" value="" style="outlineConnect=0;dashed=0;verticalLabelPosition=bottom;verticalAlign=top;align=center;html=1;shape=mxgraph.aws3.rds;fillColor=#2E73B8;gradientColor=none;" vertex="1" parent="1">
          <mxGeometry x="6554" y="130" width="536" height="523.9" as="geometry" />
        </mxCell>
        <mxCell id="eY9uLmGLlyun7crg_Z2C-14" value="" style="outlineConnect=0;dashed=0;verticalLabelPosition=bottom;verticalAlign=top;align=center;html=1;shape=mxgraph.aws3.rds;fillColor=#2E73B8;gradientColor=none;" vertex="1" parent="1">
          <mxGeometry x="6554" y="-1650" width="556" height="550" as="geometry" />
        </mxCell>
        <mxCell id="eY9uLmGLlyun7crg_Z2C-59" value="" style="sketch=0;outlineConnect=0;fontColor=#232F3E;gradientColor=none;fillColor=#8C4FFF;strokeColor=none;dashed=0;verticalLabelPosition=bottom;verticalAlign=top;align=center;html=1;fontSize=12;fontStyle=0;aspect=fixed;pointerEvents=1;shape=mxgraph.aws4.network_access_control_list;" vertex="1" parent="1">
          <mxGeometry x="7800" y="786" width="178" height="178" as="geometry" />
        </mxCell>
        <mxCell id="wz_46zm2w6vfbIwNSWO_-19" style="edgeStyle=orthogonalEdgeStyle;rounded=0;orthogonalLoop=1;jettySize=auto;html=1;strokeWidth=9;" edge="1" parent="1" source="eY9uLmGLlyun7crg_Z2C-63">
          <mxGeometry relative="1" as="geometry">
            <mxPoint x="6260" y="-540" as="targetPoint" />
            <Array as="points">
              <mxPoint x="5070" y="300" />
              <mxPoint x="5070" y="-540" />
            </Array>
          </mxGeometry>
        </mxCell>
        <mxCell id="wz_46zm2w6vfbIwNSWO_-31" value="" style="edgeStyle=orthogonalEdgeStyle;rounded=0;orthogonalLoop=1;jettySize=auto;html=1;endSize=19;strokeWidth=8;" edge="1" parent="1" source="eY9uLmGLlyun7crg_Z2C-22" target="eY9uLmGLlyun7crg_Z2C-60">
          <mxGeometry relative="1" as="geometry">
            <Array as="points">
              <mxPoint x="5070" y="-1470" />
              <mxPoint x="5070" y="-540" />
              <mxPoint x="6820" y="-540" />
            </Array>
            <mxPoint x="3250" y="-1470" as="sourcePoint" />
            <mxPoint x="6554" y="-1290" as="targetPoint" />
          </mxGeometry>
        </mxCell>
        <mxCell id="eY9uLmGLlyun7crg_Z2C-60" value="" style="rounded=1;arcSize=10;dashed=1;strokeColor=#ff0000;fillColor=none;gradientColor=none;dashPattern=8 4;strokeWidth=7;" vertex="1" parent="1">
          <mxGeometry x="6230" y="-1720" width="1180" height="1090" as="geometry" />
        </mxCell>
        <mxCell id="eY9uLmGLlyun7crg_Z2C-41" value="&lt;span style=&quot;font-size: 48px;&quot;&gt;&lt;b&gt;MySql Primary DB&lt;/b&gt;&lt;/span&gt;" style="text;html=1;align=center;verticalAlign=middle;whiteSpace=wrap;rounded=0;" vertex="1" parent="1">
          <mxGeometry x="6420" y="-1015" width="730" height="30" as="geometry" />
        </mxCell>
        <mxCell id="wz_46zm2w6vfbIwNSWO_-45" style="edgeStyle=orthogonalEdgeStyle;rounded=0;orthogonalLoop=1;jettySize=auto;html=1;strokeWidth=13;" edge="1" parent="1" source="wz_46zm2w6vfbIwNSWO_-32" target="wz_46zm2w6vfbIwNSWO_-43">
          <mxGeometry relative="1" as="geometry" />
        </mxCell>
        <mxCell id="wz_46zm2w6vfbIwNSWO_-32" value="" style="sketch=0;points=[[0,0,0],[0.25,0,0],[0.5,0,0],[0.75,0,0],[1,0,0],[0,1,0],[0.25,1,0],[0.5,1,0],[0.75,1,0],[1,1,0],[0,0.25,0],[0,0.5,0],[0,0.75,0],[1,0.25,0],[1,0.5,0],[1,0.75,0]];points=[[0,0,0],[0.25,0,0],[0.5,0,0],[0.75,0,0],[1,0,0],[0,1,0],[0.25,1,0],[0.5,1,0],[0.75,1,0],[1,1,0],[0,0.25,0],[0,0.5,0],[0,0.75,0],[1,0.25,0],[1,0.5,0],[1,0.75,0]];outlineConnect=0;fontColor=#232F3E;fillColor=#E7157B;strokeColor=#ffffff;dashed=0;verticalLabelPosition=bottom;verticalAlign=top;align=center;html=1;fontSize=12;fontStyle=0;aspect=fixed;shape=mxgraph.aws4.resourceIcon;resIcon=mxgraph.aws4.cloudwatch_2;" vertex="1" parent="1">
          <mxGeometry x="4690" y="-3150" width="510" height="510" as="geometry" />
        </mxCell>
        <mxCell id="wz_46zm2w6vfbIwNSWO_-33" style="edgeStyle=orthogonalEdgeStyle;rounded=0;orthogonalLoop=1;jettySize=auto;html=1;entryX=1;entryY=0.5;entryDx=0;entryDy=0;entryPerimeter=0;strokeWidth=11;" edge="1" parent="1" target="wz_46zm2w6vfbIwNSWO_-32">
          <mxGeometry relative="1" as="geometry">
            <mxPoint x="6840" y="-2080" as="sourcePoint" />
            <Array as="points">
              <mxPoint x="6840" y="-2895" />
            </Array>
          </mxGeometry>
        </mxCell>
        <mxCell id="wz_46zm2w6vfbIwNSWO_-35" value="&lt;font style=&quot;font-size: 120px;&quot;&gt;Database logs&lt;/font&gt;" style="text;html=1;align=center;verticalAlign=middle;whiteSpace=wrap;rounded=0;" vertex="1" parent="1">
          <mxGeometry x="5890" y="-3340" width="863" height="660" as="geometry" />
        </mxCell>
        <mxCell id="wz_46zm2w6vfbIwNSWO_-36" value="Text" style="text;html=1;align=center;verticalAlign=middle;whiteSpace=wrap;rounded=0;" vertex="1" parent="1">
          <mxGeometry x="1760" y="-180" width="60" height="30" as="geometry" />
        </mxCell>
        <mxCell id="wz_46zm2w6vfbIwNSWO_-37" value="&lt;font style=&quot;font-size: 120px;&quot;&gt;Instance and application logs&lt;/font&gt;" style="text;html=1;align=center;verticalAlign=middle;whiteSpace=wrap;rounded=0;" vertex="1" parent="1">
          <mxGeometry x="2360" y="-3440" width="863" height="660" as="geometry" />
        </mxCell>
        <mxCell id="wz_46zm2w6vfbIwNSWO_-38" style="edgeStyle=orthogonalEdgeStyle;rounded=0;orthogonalLoop=1;jettySize=auto;html=1;entryX=0;entryY=0.5;entryDx=0;entryDy=0;entryPerimeter=0;strokeWidth=8;" edge="1" parent="1" source="eY9uLmGLlyun7crg_Z2C-5" target="wz_46zm2w6vfbIwNSWO_-32">
          <mxGeometry relative="1" as="geometry">
            <Array as="points">
              <mxPoint x="-752" y="-2895" />
            </Array>
          </mxGeometry>
        </mxCell>
        <mxCell id="wz_46zm2w6vfbIwNSWO_-40" value="Text" style="edgeLabel;html=1;align=center;verticalAlign=middle;resizable=0;points=[];" connectable="0" vertex="1" parent="wz_46zm2w6vfbIwNSWO_-38">
          <mxGeometry x="0.4753" y="-39" relative="1" as="geometry">
            <mxPoint x="-3" as="offset" />
          </mxGeometry>
        </mxCell>
        <mxCell id="wz_46zm2w6vfbIwNSWO_-47" style="edgeStyle=orthogonalEdgeStyle;rounded=0;orthogonalLoop=1;jettySize=auto;html=1;strokeWidth=11;" edge="1" parent="1" source="wz_46zm2w6vfbIwNSWO_-43" target="wz_46zm2w6vfbIwNSWO_-44">
          <mxGeometry relative="1" as="geometry">
            <Array as="points">
              <mxPoint x="4944" y="-4900" />
              <mxPoint x="4944" y="-4900" />
            </Array>
          </mxGeometry>
        </mxCell>
        <mxCell id="wz_46zm2w6vfbIwNSWO_-43" value="" style="sketch=0;points=[[0,0,0],[0.25,0,0],[0.5,0,0],[0.75,0,0],[1,0,0],[0,1,0],[0.25,1,0],[0.5,1,0],[0.75,1,0],[1,1,0],[0,0.25,0],[0,0.5,0],[0,0.75,0],[1,0.25,0],[1,0.5,0],[1,0.75,0]];outlineConnect=0;fontColor=#232F3E;fillColor=#E7157B;strokeColor=#ffffff;dashed=0;verticalLabelPosition=bottom;verticalAlign=top;align=center;html=1;fontSize=12;fontStyle=0;aspect=fixed;shape=mxgraph.aws4.resourceIcon;resIcon=mxgraph.aws4.sns;" vertex="1" parent="1">
          <mxGeometry x="4710" y="-4470" width="468" height="468" as="geometry" />
        </mxCell>
        <mxCell id="wz_46zm2w6vfbIwNSWO_-44" value="&lt;font style=&quot;font-size: 120px;&quot;&gt;sujaldyavanapelli89@gmail.com&lt;/font&gt;" style="text;html=1;align=center;verticalAlign=middle;whiteSpace=wrap;rounded=0;" vertex="1" parent="1">
          <mxGeometry x="4110" y="-6370" width="1950" height="210" as="geometry" />
        </mxCell>
        <mxCell id="wz_46zm2w6vfbIwNSWO_-46" style="edgeStyle=orthogonalEdgeStyle;rounded=0;orthogonalLoop=1;jettySize=auto;html=1;" edge="1" parent="1" source="wz_46zm2w6vfbIwNSWO_-43" target="wz_46zm2w6vfbIwNSWO_-43">
          <mxGeometry relative="1" as="geometry" />
        </mxCell>
        <mxCell id="wz_46zm2w6vfbIwNSWO_-48" value="" style="dashed=0;outlineConnect=0;html=1;align=center;labelPosition=center;verticalLabelPosition=bottom;verticalAlign=top;shape=mxgraph.weblogos.gmail" vertex="1" parent="1">
          <mxGeometry x="5010" y="-5160" width="260" height="170" as="geometry" />
        </mxCell>
        <mxCell id="wz_46zm2w6vfbIwNSWO_-49" style="edgeStyle=orthogonalEdgeStyle;rounded=0;orthogonalLoop=1;jettySize=auto;html=1;entryX=0.003;entryY=0.544;entryDx=0;entryDy=0;entryPerimeter=0;strokeWidth=8;" edge="1" parent="1" source="eY9uLmGLlyun7crg_Z2C-46" target="eY9uLmGLlyun7crg_Z2C-5">
          <mxGeometry relative="1" as="geometry" />
        </mxCell>
        <mxCell id="eY9uLmGLlyun7crg_Z2C-19" value="" style="sketch=0;points=[[0,0,0],[0.25,0,0],[0.5,0,0],[0.75,0,0],[1,0,0],[0,1,0],[0.25,1,0],[0.5,1,0],[0.75,1,0],[1,1,0],[0,0.25,0],[0,0.5,0],[0,0.75,0],[1,0.25,0],[1,0.5,0],[1,0.75,0]];outlineConnect=0;fontColor=#232F3E;fillColor=#ED7100;strokeColor=#ffffff;dashed=0;verticalLabelPosition=bottom;verticalAlign=top;align=center;html=1;fontSize=12;fontStyle=0;aspect=fixed;shape=mxgraph.aws4.resourceIcon;resIcon=mxgraph.aws4.ec2;" vertex="1" parent="1">
          <mxGeometry x="-1157.5" y="-1900" width="565" height="565" as="geometry" />
        </mxCell>
        <mxCell id="wz_46zm2w6vfbIwNSWO_-6" value="" style="shape=image;verticalLabelPosition=bottom;labelBackgroundColor=default;verticalAlign=top;aspect=fixed;imageAspect=0;image=https://dwglogo.com/wp-content/uploads/2017/09/3630px-Nginx_logo.png;" vertex="1" parent="1">
          <mxGeometry x="-1246.06" y="-1842" width="742.12" height="510" as="geometry" />
        </mxCell>
        <mxCell id="wz_46zm2w6vfbIwNSWO_-3" value="&lt;span style=&quot;color: rgba(0, 0, 0, 0); font-family: monospace; font-size: 0px; text-align: start;&quot;&gt;%3CmxGraphModel%3E%3Croot%3E%3CmxCell%20id%3D%220%22%2F%3E%3CmxCell%20id%3D%221%22%20parent%3D%220%22%2F%3E%3CmxCell%20id%3D%222%22%20value%3D%22%22%20style%3D%22points%3D%5B%5D%3Baspect%3Dfixed%3Bhtml%3D1%3Balign%3Dcenter%3Bshadow%3D0%3Bdashed%3D0%3BfillColor%3D%230000FF%3BstrokeColor%3Dnone%3Bshape%3Dmxgraph.alibaba_cloud.waf_web_application_firewall%3B%22%20vertex%3D%221%22%20parent%3D%221%22%3E%3CmxGeometry%20x%3D%22-640%22%20y%3D%22-1860%22%20width%3D%22193.61%22%20height%3D%22170%22%20as%3D%22geometry%22%2F%3E%3C%2FmxCell%3E%3C%2Froot%3E%3C%2FmxGraphModel%3E&lt;/span&gt;" style="points=[];aspect=fixed;html=1;align=center;shadow=0;dashed=0;fillColor=#0000FF;strokeColor=none;shape=mxgraph.alibaba_cloud.waf_web_application_firewall;" vertex="1" parent="1">
          <mxGeometry x="-520" y="-1760" width="303.61" height="266.59" as="geometry" />
        </mxCell>
        <mxCell id="eY9uLmGLlyun7crg_Z2C-18" value="" style="sketch=0;points=[[0,0,0],[0.25,0,0],[0.5,0,0],[0.75,0,0],[1,0,0],[0,1,0],[0.25,1,0],[0.5,1,0],[0.75,1,0],[1,1,0],[0,0.25,0],[0,0.5,0],[0,0.75,0],[1,0.25,0],[1,0.5,0],[1,0.75,0]];outlineConnect=0;fontColor=#232F3E;fillColor=#ED7100;strokeColor=#ffffff;dashed=0;verticalLabelPosition=bottom;verticalAlign=top;align=center;html=1;fontSize=12;fontStyle=0;aspect=fixed;shape=mxgraph.aws4.resourceIcon;resIcon=mxgraph.aws4.ec2;" vertex="1" parent="1">
          <mxGeometry x="-1270" y="40" width="670" height="670" as="geometry" />
        </mxCell>
        <mxCell id="wz_46zm2w6vfbIwNSWO_-8" value="" style="shape=image;verticalLabelPosition=bottom;labelBackgroundColor=default;verticalAlign=top;aspect=fixed;imageAspect=0;image=https://dwglogo.com/wp-content/uploads/2017/09/3630px-Nginx_logo.png;" vertex="1" parent="1">
          <mxGeometry x="-1200" y="180" width="576.38" height="396.1" as="geometry" />
        </mxCell>
        <mxCell id="wz_46zm2w6vfbIwNSWO_-7" value="" style="points=[];aspect=fixed;html=1;align=center;shadow=0;dashed=0;fillColor=#0000FF;strokeColor=none;shape=mxgraph.alibaba_cloud.waf_web_application_firewall;" vertex="1" parent="1">
          <mxGeometry x="-480" y="220" width="243.61" height="213.9" as="geometry" />
        </mxCell>
        <mxCell id="wz_46zm2w6vfbIwNSWO_-53" value="" style="sketch=0;points=[[0,0,0],[0.25,0,0],[0.5,0,0],[0.75,0,0],[1,0,0],[0,1,0],[0.25,1,0],[0.5,1,0],[0.75,1,0],[1,1,0],[0,0.25,0],[0,0.5,0],[0,0.75,0],[1,0.25,0],[1,0.5,0],[1,0.75,0]];outlineConnect=0;fontColor=#232F3E;fillColor=#ED7100;strokeColor=#ffffff;dashed=0;verticalLabelPosition=bottom;verticalAlign=top;align=center;html=1;fontSize=12;fontStyle=0;aspect=fixed;shape=mxgraph.aws4.resourceIcon;resIcon=mxgraph.aws4.auto_scaling2;" vertex="1" parent="1">
          <mxGeometry x="-1940" y="-2020" width="240" height="240" as="geometry" />
        </mxCell>
        <mxCell id="wz_46zm2w6vfbIwNSWO_-54" value="&lt;font style=&quot;font-size: 120px;&quot;&gt;If any alerts&lt;/font&gt;" style="text;html=1;align=center;verticalAlign=middle;whiteSpace=wrap;rounded=0;" vertex="1" parent="1">
          <mxGeometry x="5178" y="-4070" width="863" height="660" as="geometry" />
        </mxCell>
      </root>
    </mxGraphModel>
  </diagram>
</mxfile>
